<?xml version="1.0" encoding="utf-8"?>
<svg xmlns="http://www.w3.org/2000/svg" fill="none" height="96" viewBox="0 0 96 96" width="96">
<g clip-path="url(#clip0_3937_63)">
<path d="M48 96C74.5097 96 96 74.5097 96 48C96 21.4903 74.5097 0 48 0C21.4903 0 0 21.4903 0 48C0 74.5097 21.4903 96 48 96Z" fill="#00C260"/>
<path clip-rule="evenodd" d="M7.5 48C7.5 37.2587 11.767 26.9574 19.3622 19.3622C26.9574 11.767 37.2587 7.5 48 7.5C58.7413 7.5 69.0426 11.767 76.6378 19.3622C84.2331 26.9574 88.5 37.2587 88.5 48C88.5 58.7413 84.2331 69.0426 76.6378 76.6378C69.0426 84.2331 58.7413 88.5 48 88.5C37.2587 88.5 26.9574 84.2331 19.3622 76.6378C11.767 69.0426 7.5 58.7413 7.5 48ZM10.5 48C10.5 57.9456 14.4509 67.4839 21.4835 74.5165C28.5161 81.5491 38.0544 85.5 48 85.5C57.9456 85.5 67.4839 81.5491 74.5165 74.5165C81.5491 67.4839 85.5 57.9456 85.5 48C85.5 38.0544 81.5491 28.5161 74.5165 21.4835C67.4839 14.4509 57.9456 10.5 48 10.5C38.0544 10.5 28.5161 14.4509 21.4835 21.4835C14.4509 28.5161 10.5 38.0544 10.5 48Z" fill="black" fill-rule="evenodd"/>
<path d="M55.5 29.25L34.5 52.5H45L42 67.5L61.5 44.25H51L55.5 29.25Z" fill="black"/>
<path d="M36.0765 23.8879L33.8213 16.023L36.9243 15.1333C37.5182 14.963 38.0556 14.9239 38.5364 15.016C39.019 15.1048 39.4259 15.3109 39.7569 15.6343C40.0898 15.9545 40.3307 16.3744 40.4797 16.8942C40.6295 17.4164 40.6457 17.898 40.5283 18.339C40.4102 18.7774 40.166 19.1577 39.7957 19.48C39.428 19.8016 38.942 20.049 38.3378 20.2222L36.2602 20.818L35.877 19.4816L37.6858 18.9629C38.0032 18.8719 38.2544 18.7527 38.4394 18.6055C38.6244 18.4582 38.7431 18.2829 38.7956 18.0794C38.8507 17.8752 38.8411 17.6439 38.767 17.3853C38.6921 17.1241 38.5765 16.919 38.4201 16.7699C38.2663 16.6201 38.0699 16.5295 37.831 16.4983C37.5939 16.4637 37.3154 16.4924 36.9953 16.5841L35.874 16.9057L37.7394 23.4111L36.0765 23.8879ZM39.2976 19.0909L42.2786 22.1095L40.4429 22.6359L37.5042 19.6051L39.2976 19.0909Z" fill="black"/>
<path d="M44.7246 21.6875L42.3835 13.5057H44.2731L45.6275 19.1906H45.6954L47.1895 13.5057H48.8075L50.2976 19.2026H50.3696L51.7239 13.5057H53.6135L51.2724 21.6875H49.5865L48.0285 16.3382H47.9645L46.4105 21.6875H44.7246Z" fill="black"/>
<path d="M54.5123 22.3363L52.7304 21.8253L57.7007 14.739L59.8436 15.3534L60.2996 23.9957L58.5177 23.4848L58.2875 16.8523L58.2261 16.8346L54.5123 22.3363ZM55.2874 19.2129L59.4963 20.4198L59.1241 21.7178L54.9152 20.5109L55.2874 19.2129Z" fill="black"/>
</g>
<defs>
<clipPath id="clip0_3937_63">
<rect fill="white" height="96" width="96"/>
</clipPath>
</defs>
</svg>