<svg width="32" height="32" viewBox="0 0 32 32" fill="none" xmlns="http://www.w3.org/2000/svg">
<rect width="32" height="32" rx="16" fill="#000DCC"/>
<path d="M25.0941 17.6604L23.8549 17.2456L21.3766 15.5917L18.8957 13.1056V11.4491L17.2443 9.79514V8.96817H16.4174L14.3435 9.38295L13.1043 11.4569L12.2773 13.116L10.626 14.7725V15.5917L9.38683 16.8309L8.97464 16.4187L5.67972 18.0752L4.85275 18.4848V20.1569L5.7549 20.6106L7.33107 19.8147L9.40498 20.1439V21.7979L10.6467 22.2127L12.2955 20.5587H13.5346V21.3831L13.1225 22.2101L13.6928 23.0318L15.5956 22.2049L15.1808 20.9631L15.593 18.8892H16.42V19.7162L17.6617 20.131L18.0739 21.3857L18.8983 22.2152L19.7227 21.3883L22.201 20.5561L21.374 19.7292L20.5496 18.0752H19.7227L20.1478 19.317L20.56 19.7292L19.733 20.5587H18.8983L18.0739 18.9022V18.0752L16.42 16.4161L17.2469 15.5891L15.5982 13.9352L16.42 13.1082V11.4517L17.2443 10.6247L18.4861 11.8665L18.0739 13.1056L18.8983 13.9326L20.5522 16.4187L22.2036 17.2456L24.2775 19.3196L25.5166 19.7343V20.5639H26.3436L27.1472 19.7292L25.4959 18.8996L25.0941 17.6604Z" fill="white"/>
</svg>
