<svg width="32" height="32" viewBox="0 0 32 32" fill="none" xmlns="http://www.w3.org/2000/svg">
<rect width="32" height="32" rx="16" fill="black"/>
<path d="M14.2954 22.2186V15.6843H15.7159C18.3359 15.6843 20.1983 16.6103 20.1983 19.7143C20.1983 22.3343 19.083 23.5759 16.5892 23.5759C15.3687 23.5759 14.2954 23.5339 14.2954 22.2186ZM14.2954 15.053V9.61303C14.2954 8.78178 14.4322 8.73969 15.5055 8.73969C18.5253 8.73969 19.8722 9.39206 19.8722 11.6649C19.8722 13.7167 18.7252 15.0109 16.3893 15.053H14.2954ZM10.7073 10.539V21.4505C10.7073 23.3865 10.5074 23.5654 8.70814 23.597V24.2073H16.5577C19.7354 24.2073 23.2919 23.6391 23.2919 19.8511C23.2919 17.1048 20.7665 15.9263 18.5569 15.4739V15.4318C20.493 15.074 22.387 13.8956 22.387 11.6228C22.3764 8.28724 18.2938 7.79269 15.6422 7.79269H8.70814V8.40298C10.5074 8.42402 10.7073 8.6029 10.7073 10.539Z" fill="white"/>
</svg>
