<svg width="64" height="64" viewBox="0 0 24 24" fill="none" id="svg-1171870247_859">
<path fill-rule="evenodd" clip-rule="evenodd" d="M11.8919 16.14L6.038 12.7593V15.3793L11.8919 18.76L17.7457 15.3793V12.7593L11.8919 16.14ZM20.0162 8.82927V16.6893L11.8919 21.38L3.76753 16.6893V8.82927L11.8919 13.52L20.0162 8.82927ZM1.5 7.51928V6.00073L11.8919 0L19.0616 4.13854L22.2837 5.9978V17.9993L11.8919 24L1.5 18.0022V7.51928ZM4.72213 6.75854L6.9926 8.06853L10.7581 5.89499V10.245L11.8919 10.9L13.0256 10.245V5.89499L14.5236 6.75854L16.7941 8.06853L19.0646 6.75854L11.8948 2.62L4.72506 6.75854H4.72213Z" fill="url(#svg-1171870247_859_paint0_linear_2519_38)"></path>
<defs>
<linearGradient id="svg-1171870247_859_paint0_linear_2519_38" x1="2" y1="18.5" x2="24" y2="6" gradientUnits="userSpaceOnUse">
<stop stop-color="#0084FF"></stop>
<stop offset="1" stop-color="#00F1FF"></stop>
</linearGradient>
</defs>
</svg>