<svg width="100" height="100" viewBox="0 0 100 100" fill="none" xmlns="http://www.w3.org/2000/svg">
<path d="M100 50.268C100 50.7749 99.9928 51.2819 99.9783 51.7888H75.659V50.6808H52.2523C52.2523 50.449 52.2596 50.2173 52.2596 49.9928C52.2596 49.7682 52.2596 49.5293 52.2523 49.3047H75.659V48.2039H99.9566C99.9855 48.8919 100 49.58 100 50.268ZM51.8395 45.2781L74.7465 42.4609L74.8841 43.5617L99.073 40.5852C98.8413 39.3974 98.566 38.2242 98.2546 37.0727L74.4424 40.0058L74.58 41.1066L51.5643 43.9383C51.6657 44.3873 51.7598 44.8363 51.8395 45.2926V45.2781ZM50.6446 40.8459L72.5377 35.378L72.8056 36.4499L96.0385 30.6489C95.5605 29.5264 95.0463 28.4183 94.4959 27.3392L71.9438 32.9736L72.2118 34.0455L50.1376 39.564C50.3187 39.9913 50.4852 40.4186 50.6446 40.8531V40.8459ZM48.7036 36.6961L69.17 28.9687L69.5611 30.0043L91.2152 21.8279C90.5127 20.7995 89.774 19.8001 88.9919 18.8297L68.2937 26.644L68.6848 27.6796L47.9722 35.5012C48.2257 35.8922 48.4719 36.2906 48.7036 36.6961ZM46.0168 32.8578L64.0933 23.4357L64.6002 24.4206L84.5887 13.9991C83.6689 13.1083 82.7129 12.261 81.728 11.4426L62.9418 21.2341L63.4487 22.219L45.0681 31.8004C45.3867 32.148 45.7054 32.4957 46.0096 32.8578H46.0168ZM41.657 28.7152L58.0243 18.3082L58.6182 19.2425L76.6802 7.75637C75.5432 7.03215 74.3844 6.35863 73.1895 5.72856L56.699 16.2152L57.2929 17.1495L40.4548 27.8534C40.8676 28.1286 41.2659 28.4183 41.6642 28.7152H41.657ZM37.7897 26.2963L51.5064 15.0492L52.2089 15.9038L67.6564 3.23001C66.3456 2.7303 64.9986 2.28129 63.637 1.89021L49.9348 13.1301L50.6373 13.9846L36.4209 25.6446C36.8844 25.8473 37.3407 26.0646 37.7897 26.2963ZM32.6695 24.3047L43.5038 13.5211L44.2787 14.3033L58.0461 0.622827C56.5542 0.376593 55.0406 0.195539 53.5052 0.079664L41.7656 11.7613L42.5406 12.5435L31.0979 23.9282C31.6266 24.0368 32.148 24.1599 32.6695 24.3047ZM26.6802 23.3995L35.3201 12.9273L36.1747 13.6298L47.4218 0C45.7126 0.079664 44.0252 0.246234 42.3667 0.492468L33.4082 11.3485L34.2627 12.051L24.9059 23.3922C25.1666 23.385 25.4345 23.3777 25.6952 23.3777C26.0284 23.3777 26.3543 23.3777 26.6802 23.3922V23.3995ZM21.502 23.7109L28.1576 13.4125L29.0846 14.0136L37.1307 1.55707C35.2911 2.03505 33.4951 2.61443 31.7425 3.28795L26.0791 12.0582L27.0061 12.6593L19.6335 24.073C20.2491 23.9282 20.872 23.805 21.502 23.7036V23.7109ZM15.7517 25.3114L20.5388 16.3384L21.5093 16.8598L27.8462 4.98986C25.8111 5.98204 23.8557 7.10458 21.9873 8.35023L18.3444 15.1724L19.3221 15.6938L13.6877 26.2529C14.354 25.9125 15.042 25.6011 15.7445 25.3187L15.7517 25.3114ZM11.6237 27.4189L13.6587 21.6396L14.7016 22.009L18.6559 10.7836C16.6498 12.3769 14.7668 14.115 13.0214 15.9907L11.3195 20.8213L12.3624 21.1906L9.69728 28.7514C10.3201 28.2807 10.9574 27.8389 11.6165 27.4261L11.6237 27.4189ZM6.54693 31.5542L7.44496 27.3537L8.52404 27.5855L10.3346 19.1266C8.4299 21.5455 6.74247 24.1454 5.30127 26.8902L6.10516 27.064L4.45394 34.0165C5.09849 33.1547 5.80098 32.3291 6.54693 31.5542ZM2.81721 36.4644V30.9024C1.47016 34.4583 0.514195 38.8833 0 43.2213C0.630069 40.8169 1.58604 38.5501 2.81721 36.4644ZM0.0362109 56.909C0.56489 60.6098 1.49189 64.1802 2.781 67.5768V63.4704C1.59328 61.4426 0.659038 59.241 0.0362109 56.909ZM4.62775 66.2152L6.06895 72.936L5.26506 73.1098C6.70626 75.8618 8.39369 78.4545 10.2984 80.8734L8.48783 72.4145L7.40875 72.6463L6.49623 68.3951C5.8372 67.6999 5.20713 66.9757 4.62775 66.208V66.2152ZM9.64658 71.2123L12.3262 78.8166L11.2833 79.186L12.9852 84.0165C14.7306 85.8922 16.6136 87.6303 18.6196 89.2236L14.6654 77.9982L13.6225 78.3676L11.5802 72.5594C10.9212 72.1393 10.2767 71.6976 9.65382 71.2268L9.64658 71.2123ZM13.6443 73.7254L19.2932 84.3134L18.3155 84.8349L21.9583 91.657C23.8268 92.9026 25.7822 94.0252 27.8172 95.0174L21.4803 83.1474L20.5026 83.6689L15.701 74.6741C14.9986 74.3916 14.3105 74.073 13.637 73.7326L13.6443 73.7254ZM19.5901 75.9125L26.9699 87.3407L26.0429 87.9418L31.7063 96.712C33.4589 97.3856 35.2549 97.9649 37.0944 98.4429L29.0484 85.9864L28.1214 86.5875L21.4586 76.2746C20.8285 76.1732 20.1984 76.0501 19.5828 75.9053L19.5901 75.9125ZM24.8624 76.6078L34.2193 87.949L33.3647 88.6515L42.3233 99.5075C43.9818 99.7538 45.6692 99.9203 47.3783 100L36.1312 86.363L35.2766 87.0655L26.6367 76.5933C26.3253 76.6078 26.0067 76.6078 25.688 76.6078C25.4128 76.6078 25.1304 76.6078 24.8552 76.5933L24.8624 76.6078ZM31.0689 76.0718L42.5043 87.4493L41.7294 88.2315L53.469 99.9131C55.0043 99.7972 56.518 99.6162 58.0098 99.3699L44.2497 85.6822L43.4676 86.4716L32.6405 75.6952C32.1263 75.8328 31.5976 75.9632 31.0689 76.0718ZM36.3992 74.3699L50.6011 86.0226L49.8986 86.8772L63.6008 98.117C64.9623 97.7259 66.3094 97.2769 67.6202 96.7772L52.1654 84.1034L51.4629 84.958L37.7607 73.7181C37.3117 73.9499 36.8554 74.1671 36.3919 74.3699H36.3992ZM40.4258 72.1538L57.2422 82.8505L56.6483 83.7848L73.1388 94.2714C74.3337 93.6414 75.4997 92.9606 76.6295 92.2436L58.5675 80.7575L57.9736 81.6918L41.628 71.2992C41.2297 71.5962 40.8314 71.8859 40.4186 72.1611L40.4258 72.1538ZM45.0608 68.2141L63.4198 77.781L62.9128 78.7659L81.699 88.5573C82.684 87.739 83.6399 86.8916 84.5597 86.0009L64.5713 75.5794L64.0643 76.5643L46.0096 67.1567C45.7054 67.5188 45.394 67.8737 45.0681 68.2141H45.0608ZM47.9649 64.5061L68.6486 72.3204L68.2575 73.356L88.9557 81.1703C89.7306 80.1999 90.4693 79.2005 91.179 78.1721L69.5249 69.9957L69.1338 71.0313L48.6964 63.3111C48.4647 63.7167 48.2184 64.115 47.9649 64.5061ZM50.1304 60.4505L72.1683 65.9545L71.9003 67.0264L94.4525 72.6608C95.0101 71.5817 95.5243 70.4736 96.0023 69.3511L72.7694 63.5501L72.5014 64.622L50.6373 59.1614C50.478 59.5959 50.3042 60.0232 50.1304 60.4505ZM51.5643 56.0762L74.5437 58.9006L74.4061 60.0014L98.2184 62.9345C98.5298 61.7758 98.805 60.6025 99.0368 59.4221L74.8479 56.4455L74.7103 57.5463L51.8395 54.7291C51.7598 55.1854 51.6657 55.6344 51.5643 56.0834V56.0762Z" fill="white"/>
</svg>
