<svg width="24" height="24" viewBox="0 0 24 24" fill="none" xmlns="http://www.w3.org/2000/svg">
<g clip-path="url(#clip0_527_326)">
<circle cx="12" cy="12" r="12" fill="#0066FF"/>
<path d="M6.54541 11.3571H11.1765V12.5934H6.54541V11.3571Z" fill="white"/>
<path d="M6.54541 8.67857H11.1765V9.91483H6.54541V8.67857Z" fill="white"/>
<path d="M12.4396 11.3571H17.0707V12.5934H12.4396V11.3571Z" fill="white"/>
<path d="M12.4396 8.67857H17.0707V9.91483H12.4396V8.67857Z" fill="white"/>
<path d="M12.4396 6H17.0707V7.23626H12.4396V6Z" fill="white"/>
<path d="M6.54541 16.7143H11.1765V17.9505H6.54541V16.7143Z" fill="white"/>
<path d="M12.4396 16.7143H17.0707V17.9505H12.4396V16.7143Z" fill="white"/>
<path d="M6.54541 14.0357H11.1765V15.272H6.54541V14.0357Z" fill="white"/>
<path d="M12.4396 14.0357H17.0707V15.272H12.4396V14.0357Z" fill="white"/>
<circle cx="8.5" cy="16.9004" r="6" fill="#00D743"/>
<path d="M8.56189 20.9678C8.00429 20.9678 7.50539 20.8724 7.06518 20.6816C6.63231 20.4909 6.28748 20.2121 6.03069 19.8452C5.78124 19.4784 5.65284 19.0345 5.64551 18.5136H7.21925C7.22659 18.7411 7.28528 18.9465 7.39534 19.1299C7.50539 19.3133 7.65579 19.4601 7.84655 19.5701C8.04464 19.6728 8.27942 19.7242 8.55088 19.7242C8.78566 19.7242 8.98742 19.6875 9.15617 19.6141C9.33225 19.5334 9.46798 19.4234 9.56336 19.284C9.65874 19.1446 9.70643 18.9795 9.70643 18.7887C9.70643 18.5686 9.6514 18.3852 9.54135 18.2385C9.43864 18.0917 9.2919 17.967 9.10114 17.8643C8.91772 17.7616 8.70129 17.6699 8.45184 17.5892C8.20972 17.5011 7.95293 17.4094 7.68147 17.314C7.07252 17.1159 6.60663 16.8518 6.28381 16.5217C5.96833 16.1915 5.81059 15.755 5.81059 15.212C5.81059 14.7498 5.92064 14.3536 6.14074 14.0235C6.36818 13.6933 6.68 13.4402 7.07619 13.2641C7.47237 13.088 7.92359 13 8.42983 13C8.95074 13 9.40562 13.0917 9.79447 13.2751C10.1907 13.4512 10.5025 13.708 10.7299 14.0455C10.9647 14.383 11.0858 14.7792 11.0931 15.2341H9.50834C9.501 15.0653 9.44964 14.9076 9.35426 14.7608C9.26622 14.6068 9.1415 14.4857 8.98009 14.3977C8.81868 14.3023 8.62792 14.2546 8.40782 14.2546C8.21706 14.2473 8.04098 14.2766 7.87957 14.3426C7.72549 14.4087 7.60077 14.5077 7.50539 14.6398C7.41735 14.7645 7.37333 14.9222 7.37333 15.113C7.37333 15.2964 7.41735 15.4505 7.50539 15.5752C7.60077 15.6999 7.72916 15.81 7.89057 15.9054C8.05198 15.9934 8.24274 16.0778 8.46284 16.1585C8.68295 16.2319 8.92139 16.3089 9.17818 16.3896C9.55969 16.5217 9.91186 16.6794 10.2347 16.8628C10.5575 17.0389 10.8143 17.27 11.005 17.5562C11.1958 17.8423 11.2912 18.2201 11.2912 18.6897C11.2912 19.0932 11.1848 19.4674 10.972 19.8122C10.7593 20.1571 10.4511 20.4359 10.0476 20.6486C9.6514 20.8614 9.15617 20.9678 8.56189 20.9678Z" fill="white"/>
</g>
<defs>
<clipPath id="clip0_527_326">
<rect width="24" height="24" fill="white"/>
</clipPath>
</defs>
</svg>
