<svg width="99" height="24" viewBox="0 0 99 24" fill="none" xmlns="http://www.w3.org/2000/svg">
<path d="M22.9912 14.542L22.9609 14.5738C22.9468 14.5885 22.9324 14.603 22.9179 14.6175L14.6062 22.9158C13.1583 24.3614 10.8108 24.3614 9.36287 22.9158L7.06758 20.6243C6.90485 20.4625 6.90452 20.1993 7.06649 20.0368C7.11416 19.989 7.17275 19.9535 7.23718 19.9334C9.69736 19.1739 11.6964 18.2973 13.2341 17.3035C16.8963 14.9366 20.1487 14.0161 22.9912 14.542ZM21.2487 7.71567C24.3175 8.68269 23.9593 10.9402 24 11.8302C20.6392 10.0679 16.5962 10.7138 11.8708 13.7678C8.34871 16.0441 5.3984 16.9826 3.01991 16.5833C0.641412 16.184 0.106353 13.2792 0 12.5073C2.61355 13.8288 6.11605 13.0703 10.5074 10.2322C14.5995 7.58753 18.18 6.74866 21.2487 7.71567ZM14.6062 1.0842L16.7629 3.23714C16.9254 3.39921 16.9256 3.66236 16.7635 3.82486C16.7057 3.88283 16.632 3.92241 16.5518 3.93855C13.4296 4.56754 10.9327 5.48688 9.06099 6.69657C5.8536 8.76946 3.12038 9.73294 0.861318 9.58701L0.861553 9.5864L9.36287 1.0842C10.8108 -0.3614 13.1583 -0.3614 14.6062 1.0842Z" fill="url(#paint0_linear_931_193)"/>
<path d="M42.5888 7.60986C42.4976 6.78084 42.1136 6.13538 41.4367 5.67348C40.7664 5.21149 39.8941 4.9805 38.8202 4.9805C38.0652 4.9805 37.4176 5.09126 36.8774 5.31279C36.3371 5.53422 35.9239 5.8348 35.6374 6.21452C35.351 6.59415 35.2046 7.02764 35.1981 7.51491C35.1981 7.91991 35.2925 8.27113 35.4812 8.56859C35.6765 8.86594 35.9401 9.1191 36.2721 9.32794C36.604 9.53044 36.9717 9.70132 37.3753 9.84048C37.7788 9.97974 38.1856 10.0968 38.5957 10.1917L40.4702 10.6474C41.2252 10.8182 41.9509 11.0492 42.6473 11.3402C43.3503 11.6314 43.9784 11.9984 44.5316 12.4414C45.0913 12.8843 45.534 13.4191 45.8594 14.0455C46.1848 14.6721 46.3475 15.4061 46.3475 16.2478C46.3475 17.3868 46.0481 18.3899 45.4494 19.2567C44.8505 20.1174 43.9849 20.7914 42.8524 21.2786C41.7264 21.7595 40.3628 22 38.7617 22C37.2061 22 35.8555 21.7659 34.71 21.2976C33.5709 20.8293 32.6793 20.1459 32.0349 19.2473C31.3971 18.3487 31.0521 17.2539 31 15.963H34.5635C34.6156 16.6401 34.8304 17.2033 35.2079 17.6526C35.5854 18.1019 36.0768 18.4373 36.6821 18.6588C37.2939 18.8802 37.9774 18.991 38.7324 18.991C39.5199 18.991 40.2098 18.8771 40.8021 18.6492C41.4009 18.4151 41.8696 18.0924 42.208 17.6811C42.5464 17.2634 42.719 16.7762 42.7255 16.2193C42.719 15.7131 42.566 15.2954 42.2666 14.9663C41.9672 14.6309 41.5474 14.3525 41.0072 14.131C40.4735 13.9032 39.8485 13.7007 39.1327 13.5235L36.8579 12.954C35.2111 12.5427 33.9094 11.9193 32.9526 11.084C32.0023 10.2424 31.5272 9.12544 31.5272 7.73322C31.5272 6.5879 31.8462 5.58487 32.4839 4.72423C33.1283 3.86358 34.0038 3.19597 35.1102 2.72139C36.2168 2.24046 37.4697 2 38.869 2C40.2879 2 41.5311 2.24046 42.5985 2.72139C43.6724 3.19597 44.5154 3.85724 45.1272 4.70529C45.7389 5.54691 46.0546 6.5151 46.0742 7.60986H42.5888ZM52.5154 21.7058L48.2782 7.12572H51.8808L54.5168 17.3774H54.6533L57.3484 7.12572H60.9117L63.6058 17.3204H63.7523L66.35 7.12572H69.9615L65.7147 21.7058H62.0339L59.2224 11.8529H59.0177L56.2062 21.7058H52.5154ZM78.6389 21.9905C77.1353 21.9905 75.8365 21.6867 74.7434 21.0792C73.6563 20.4655 72.8202 19.5985 72.234 18.4785C71.6488 17.352 71.3557 16.0262 71.3557 14.5012C71.3557 13.0014 71.6488 11.6851 72.234 10.5524C72.8262 9.41333 73.6533 8.52741 74.7143 7.89463C75.7752 7.25552 77.0219 6.93591 78.4533 6.93591C79.3777 6.93591 80.25 7.08142 81.07 7.37253C81.8961 7.65729 82.6258 8.10025 83.2572 8.70151C83.8946 9.30266 84.3954 10.0684 84.7608 10.9986C85.1252 11.9225 85.3069 13.0236 85.3069 14.3018V15.3555H73.0149V13.0394H81.9192C81.9132 12.3812 81.7666 11.7959 81.4796 11.2834C81.1935 10.7645 80.793 10.3562 80.2791 10.0589C79.7712 9.76143 79.179 9.6127 78.5024 9.6127C77.7797 9.6127 77.1454 9.78358 76.5983 10.1252C76.0513 10.4607 75.6257 10.9036 75.3195 11.4542C75.0204 11.9984 74.8669 12.5964 74.8608 13.2482V15.2701C74.8608 16.1181 75.0204 16.8458 75.3386 17.4533C75.6578 18.0544 76.1035 18.5164 76.6766 18.8392C77.2498 19.1555 77.9193 19.3137 78.6881 19.3137C79.202 19.3137 79.6678 19.2442 80.0843 19.1049C80.5009 18.9594 80.8613 18.7473 81.1674 18.4689C81.4735 18.1905 81.7044 17.8456 81.861 17.4343L85.1603 17.7949C84.9525 18.6429 84.555 19.3833 83.9699 20.0162C83.3907 20.6426 82.6479 21.1299 81.7435 21.478C80.8392 21.8197 79.8043 21.9905 78.6389 21.9905ZM91.8312 2.26574V21.7058H88.297V2.26574H91.8312ZM99 2.26574V21.7058H95.4658V2.26574H99Z" fill="white"/>
<defs>
<linearGradient id="paint0_linear_931_193" x1="12" y1="1.17714e-05" x2="11.7647" y2="40.4706" gradientUnits="userSpaceOnUse">
<stop stop-color="#3068EF"/>
<stop offset="1" stop-color="#1322AC"/>
</linearGradient>
</defs>
</svg>
